<?xml version="1.0" encoding="utf-8"?>
<!-- Svg Vector Icons : http://www.onlinewebfonts.com/icon -->
<!DOCTYPE svg PUBLIC "-//W3C//DTD SVG 1.1//EN" "http://www.w3.org/Graphics/SVG/1.1/DTD/svg11.dtd">
<svg version="1.1" xmlns="http://www.w3.org/2000/svg" xmlns:xlink="http://www.w3.org/1999/xlink" x="0px" y="0px" viewBox="0 0 1000 1000" enable-background="new 0 0 1000 1000" xml:space="preserve">
<metadata> Svg Vector Icons : http://www.onlinewebfonts.com/icon </metadata>
<g><g><g id="_x31__26_"><g><path d="M683.8,469.4H530.6V316.3c0-16.9-13.7-30.6-30.6-30.6c-16.9,0-30.6,13.7-30.6,30.6v153.1H316.3c-16.9,0-30.6,13.7-30.6,30.6c0,16.9,13.7,30.6,30.6,30.6h153.1v153.1c0,16.9,13.7,30.6,30.6,30.6c16.9,0,30.6-13.7,30.6-30.6V530.6h153.1c16.9,0,30.6-13.7,30.6-30.6C714.4,483.1,700.7,469.4,683.8,469.4z M867.5,10h-735C64.8,10,10,64.8,10,132.5v735C10,935.2,64.8,990,132.5,990h735c67.7,0,122.5-54.8,122.5-122.5v-735C990,64.8,935.2,10,867.5,10z M928.8,867.5c0,33.8-27.4,61.3-61.3,61.3h-735c-33.8,0-61.3-27.4-61.3-61.3v-735c0-33.8,27.4-61.3,61.3-61.3h735c33.8,0,61.3,27.4,61.3,61.3V867.5z"/></g></g></g><g></g><g></g><g></g><g></g><g></g><g></g><g></g><g></g><g></g><g></g><g></g><g></g><g></g><g></g><g></g></g>
</svg>